<?xml version="1.0" encoding="UTF-8"?>
<svg width="18px" height="19px" viewBox="0 0 18 19" version="1.1" xmlns="http://www.w3.org/2000/svg" xmlns:xlink="http://www.w3.org/1999/xlink">
    <!-- Generator: Sketch 51.2 (57519) - http://www.bohemiancoding.com/sketch -->
    <title>Combined Shape@2x</title>
    <desc>Created with Sketch.</desc>
    <defs></defs>
    <g id="M04_互动发起端" stroke="none" stroke-width="1" fill="none" fill-rule="evenodd">
        <g id="M04_互动发起端界面_已发起_聊天" transform="translate(-1801.000000, -991.000000)" fill="#888888" fill-rule="nonzero">
            <g id="右侧功能区" transform="translate(1540.000000, 0.000000)">
                <g id="底部输入框" transform="translate(0.000000, 982.000000)">
                    <g id="聊天输入">
                        <g id="选择">
                            <g id="icon_公告" transform="translate(261.000000, 9.000000)">
                                <path d="M3.85714286,5.28571429 C2.27918643,5.28571429 1,6.56490071 1,8.14285714 C1,9.72081357 2.27918643,11 3.85714286,11 L9.03376014,11 C9.49706899,11 9.94600669,11.1608531 10.3038931,11.455085 L14.3,14.7404355 L14.3,1.64060112 L10.248981,4.85283145 C9.89545367,5.13315878 9.457527,5.28571429 9.00634521,5.28571429 L3.85714286,5.28571429 Z M9.00634521,4.28571429 C9.2319361,4.28571429 9.45089944,4.20943653 9.62766312,4.06927287 L13.6786821,0.857042539 C14.1114295,0.513898132 14.7404142,0.586535755 15.0835586,1.01928321 C15.2237222,1.19604689 15.3,1.41501023 15.3,1.64060112 L15.3,14.7404355 C15.3,15.2927202 14.8522847,15.7404355 14.3,15.7404355 C14.0683456,15.7404355 13.8438767,15.6600089 13.6649335,15.5128929 L9.66882661,12.2275425 C9.48988341,12.0804266 9.26541456,12 9.03376014,12 L3.85714286,12 C1.72690168,12 2.60879304e-16,10.2730983 0,8.14285714 C6.85137817e-16,6.01261596 1.72690168,4.28571429 3.85714286,4.28571429 L9.00634521,4.28571429 Z M15.3,10.5 C15.0238576,10.5 14.8,10.2761424 14.8,10 C14.8,9.72385763 15.0238576,9.5 15.3,9.5 C15.9618007,9.5 16.5,8.95727806 16.5,8.28571429 C16.5,7.61415051 15.9618007,7.07142857 15.3,7.07142857 C15.0238576,7.07142857 14.8,6.84757095 14.8,6.57142857 C14.8,6.2952862 15.0238576,6.07142857 15.3,6.07142857 C16.5159674,6.07142857 17.5,7.06373034 17.5,8.28571429 C17.5,9.50769823 16.5159674,10.5 15.3,10.5 Z M7.725,11.0714286 L7.725,16.5714286 C7.725,17.3998557 7.05342712,18.0714286 6.225,18.0714286 L5.49409773,18.0714286 C4.77955264,18.0714286 4.16420161,17.5673959 4.0234758,16.8668455 L2.85929879,11.0714286 L7.725,11.0714286 Z M5.00389042,16.6699009 C5.05079902,16.9034177 5.25591603,17.0714286 5.49409773,17.0714286 L6.225,17.0714286 C6.50114237,17.0714286 6.725,16.8475709 6.725,16.5714286 L6.725,12.0714286 L4.08015433,12.0714286 L5.00389042,16.6699009 Z" id="Combined-Shape"></path>
                            </g>
                        </g>
                    </g>
                </g>
            </g>
        </g>
    </g>
</svg>