<?xml version="1.0" encoding="UTF-8"?>
<svg width="16px" height="16px" viewBox="0 0 16 16" version="1.1" xmlns="http://www.w3.org/2000/svg" xmlns:xlink="http://www.w3.org/1999/xlink">
    <!-- Generator: Sketch 51.2 (57519) - http://www.bohemiancoding.com/sketch -->
    <title>Combined Shape</title>
    <desc>Created with Sketch.</desc>
    <defs></defs>
    <g id="M04_互动发起端" stroke="none" stroke-width="1" fill="none" fill-rule="evenodd">
        <g id="M04_互动发起端_已发起_成员" transform="translate(-1646.000000, -413.000000)" fill="#555555" fill-rule="nonzero">
            <g id="右侧功能区" transform="translate(1540.000000, 0.000000)">
                <g id="聊天消息" transform="translate(0.000000, 66.000000)">
                    <g id="icon_聊天" transform="translate(105.000000, 346.000000)">
                        <path d="M1.92381492,2.95509392 C1.94502771,2.97936288 1.96715413,3.00311281 1.9901943,3.02629899 L2.62694333,3.66708305 C2.54799138,3.75549249 2.5,3.87214175 2.5,4 L2.5,12.4841691 C2.5,12.7603115 2.72385763,12.9841691 3,12.9841691 L9.47644413,12.9841691 C9.59068479,12.9841691 9.70148058,13.02329 9.79039352,13.0950216 L12.0948745,14.9541891 L12.0948745,13.4841691 C12.0948745,13.4004787 12.1154362,13.3215907 12.1517833,13.2522812 L13.0948745,14.2013488 L13.0948745,16 C13.0948745,16.4202095 12.6079721,16.6529966 12.2809251,16.3891475 L9.29989896,13.9841691 L3,13.9841691 C2.17157288,13.9841691 1.5,13.3125962 1.5,12.4841691 L1.5,4 C1.5,3.59374169 1.66150614,3.22520517 1.92381492,2.95509392 Z M5.69651321,2.5 L15,2.5 C15.8284271,2.5 16.5,3.17157288 16.5,4 L16.5,12.4841691 C16.5,12.7405837 16.4356616,12.9819713 16.3222477,13.193069 L15.5,12.3656108 L15.5,4 C15.5,3.72385763 15.2761424,3.5 15,3.5 L6.69021618,3.5 L5.69651321,2.5 Z M2.69953091,2.32142909 C2.50488647,2.12555119 2.50588637,1.80897028 2.70176427,1.61432584 C2.89764217,1.41968139 3.21422308,1.4206813 3.40886752,1.61655919 L16.8546683,15.1475651 C17.0493128,15.3434429 17.0483128,15.6600239 16.8524349,15.8546683 C16.6565571,16.0493128 16.3399761,16.0483128 16.1453317,15.8524349 L2.69953091,2.32142909 Z" id="Combined-Shape"></path>
                    </g>
                </g>
            </g>
        </g>
    </g>
</svg>