<?xml version="1.0" standalone="no"?><!DOCTYPE svg PUBLIC "-//W3C//DTD SVG 1.1//EN" "http://www.w3.org/Graphics/SVG/1.1/DTD/svg11.dtd"><svg t="1545125912936" class="icon" style="" viewBox="0 0 1024 1024" version="1.1" xmlns="http://www.w3.org/2000/svg" p-id="6353" xmlns:xlink="http://www.w3.org/1999/xlink" width="32" height="32"><defs><style type="text/css"></style></defs><path d="M512 992a480 480 0 1 1 0-960 480 480 0 0 1 0 960z m0-64a416 416 0 1 0 0-832 416 416 0 0 0 0 832z" fill="#888888" p-id="6354"></path><path d="M518.208 256c46.912 0 84.224 11.968 112.768 37.248 27.072 23.936 41.024 56.96 41.024 99.136 0 31.68-9.536 59.072-27.84 82.304-7.296 8.448-27.072 26.752-59.328 54.208a146.496 146.496 0 0 0-34.368 38.656 95.168 95.168 0 0 0-13.952 51.328v16.192h-58.56V618.88c0-23.232 4.416-43.584 13.184-61.184 10.24-21.12 34.432-47.808 73.984-81.6 11.712-11.264 20.48-19.712 24.896-25.344 14.656-17.6 21.952-35.84 21.952-55.552 0-28.16-8.768-49.92-24.896-65.408-16.832-16.832-41.024-24.576-71.808-24.576-36.608 0-63.68 11.264-81.28 34.432-16.064 19.712-24.128 46.464-24.128 80.896H352c0-49.216 13.888-88.64 43.2-118.144C424.512 271.488 465.472 256 518.208 256z m-10.944 428.288c12.48 0 23.424 3.52 32.192 11.968a39.552 39.552 0 0 1 12.48 29.568 38.144 38.144 0 0 1-13.184 30.272c-8.832 7.68-19.072 11.904-31.488 11.904s-22.72-4.224-31.488-11.968c-8.768-8.448-12.48-18.304-12.48-30.272s3.648-21.76 12.48-29.504a42.752 42.752 0 0 1 31.488-11.968z" fill="#888888" p-id="6355"></path></svg>